<?xml version="1.0" encoding="UTF-8"?>
<svg width="700pt" height="700pt" version="1.1" viewBox="0 0 700 700" xmlns="http://www.w3.org/2000/svg">
 <path d="m390.06 88.047c-2.6211-2.5938-6.1602-4.0469-9.8477-4.0469h-159.16c-17.363 0-31.688 13.965-31.688 31.5v187.25h-21.367c-7.7305 0-14 6.2695-14 14s6.2695 14 14 14h336c7.7305 0 14-6.2695 14-14s-6.2695-14-14-14h-21.367v-117.25c0-3.7383-1.4961-7.3203-4.1523-9.9531zm64.574 214.7h-237.27v-187.25c0-1.7969 1.5117-3.5 3.6875-3.5h145.16v56c0 17.535 14.324 31.5 31.684 31.5h56.738zm-20.051-131.25h-36.688c-2.1719 0-3.6836-1.707-3.6836-3.5v-36.449zm7.5234 183.75c-7.7305 0-14 6.2695-14 14v78.75c0 7.7305 6.2695 14 14 14s14-6.2695 14-14v-78.75c0-7.7305-6.2695-14-14-14zm-70.738 0c-7.7305 0-14 6.2695-14 14v43.75c0 7.7305 6.2695 14 14 14 7.7344 0 14-6.2695 14-14v-43.75c0-7.7305-6.2656-14-14-14zm-70.734 0c-7.7344 0-14 6.2695-14 14v78.75c0 7.7305 6.2656 14 14 14 7.7305 0 14-6.2695 14-14v-78.75c0-7.7305-6.2695-14-14-14zm-70.738 0c-7.7305 0-14 6.2695-14 14v43.75c0 7.7305 6.2695 14 14 14s14-6.2695 14-14v-43.75c0-7.7305-6.2695-14-14-14z" fill-rule="evenodd"/>
</svg>
